<?xml version="1.0" encoding="utf-8"?>
<!-- Generator: Adobe Illustrator 27.0.1, SVG Export Plug-In . SVG Version: 6.00 Build 0)  -->
<svg version="1.1" id="Ebene_1" xmlns="http://www.w3.org/2000/svg" xmlns:xlink="http://www.w3.org/1999/xlink" x="0px" y="0px"
	 viewBox="0 0 357 343.5" style="enable-background:new 0 0 357 343.5;" xml:space="preserve">
<style type="text/css">
	.st0{display:none;}
	.st1{display:inline;}
	.st2{fill:none;stroke:#FFCCFF;stroke-miterlimit:10;}
	.st3{fill:#FFFFFF;}
	.st4{enable-background:new    ;}
	.st5{fill:#0091D2;}
	.st6{fill:none;stroke:#0091D2;stroke-width:2;stroke-linecap:round;stroke-linejoin:round;}
</style>
<g id="Raster" class="st0">
	<g class="st1">
		<line class="st2" x1="4.86" y1="-380.9" x2="-1908.03" y2="750.07"/>
		<line class="st2" x1="30.27" y1="-380.9" x2="-1882.62" y2="750.07"/>
		<line class="st2" x1="55.67" y1="-380.9" x2="-1857.22" y2="750.07"/>
		<line class="st2" x1="81.08" y1="-380.9" x2="-1831.81" y2="750.07"/>
		<line class="st2" x1="106.48" y1="-380.9" x2="-1806.41" y2="750.07"/>
		<line class="st2" x1="131.89" y1="-380.9" x2="-1781" y2="750.07"/>
		<line class="st2" x1="157.3" y1="-380.9" x2="-1755.6" y2="750.07"/>
		<line class="st2" x1="182.7" y1="-380.9" x2="-1730.19" y2="750.07"/>
		<line class="st2" x1="208.11" y1="-380.9" x2="-1704.79" y2="750.07"/>
		<line class="st2" x1="233.51" y1="-380.9" x2="-1679.38" y2="750.07"/>
		<line class="st2" x1="258.92" y1="-380.9" x2="-1653.97" y2="750.07"/>
		<line class="st2" x1="284.32" y1="-380.9" x2="-1628.57" y2="750.07"/>
		<line class="st2" x1="309.73" y1="-380.9" x2="-1603.16" y2="750.07"/>
		<line class="st2" x1="335.13" y1="-380.9" x2="-1577.76" y2="750.07"/>
		<line class="st2" x1="360.54" y1="-380.9" x2="-1552.35" y2="750.07"/>
		<line class="st2" x1="385.94" y1="-380.9" x2="-1526.95" y2="750.07"/>
		<line class="st2" x1="411.35" y1="-380.9" x2="-1501.54" y2="750.07"/>
		<line class="st2" x1="436.76" y1="-380.9" x2="-1476.14" y2="750.07"/>
		<line class="st2" x1="462.16" y1="-380.9" x2="-1450.73" y2="750.07"/>
		<line class="st2" x1="487.57" y1="-380.9" x2="-1425.33" y2="750.07"/>
		<line class="st2" x1="512.97" y1="-380.9" x2="-1399.92" y2="750.07"/>
		<line class="st2" x1="538.38" y1="-380.9" x2="-1374.51" y2="750.07"/>
		<line class="st2" x1="563.78" y1="-380.9" x2="-1349.11" y2="750.07"/>
		<line class="st2" x1="589.19" y1="-380.9" x2="-1323.7" y2="750.07"/>
		<line class="st2" x1="614.59" y1="-380.9" x2="-1298.3" y2="750.07"/>
		<line class="st2" x1="640" y1="-380.9" x2="-1272.89" y2="750.07"/>
		<line class="st2" x1="665.4" y1="-380.9" x2="-1247.49" y2="750.07"/>
		<line class="st2" x1="690.81" y1="-380.9" x2="-1222.08" y2="750.07"/>
		<line class="st2" x1="716.21" y1="-380.9" x2="-1196.68" y2="750.07"/>
		<line class="st2" x1="741.62" y1="-380.9" x2="-1171.27" y2="750.07"/>
		<line class="st2" x1="767.03" y1="-380.9" x2="-1145.87" y2="750.07"/>
		<line class="st2" x1="792.43" y1="-380.9" x2="-1120.46" y2="750.07"/>
		<line class="st2" x1="817.84" y1="-380.9" x2="-1095.06" y2="750.07"/>
		<line class="st2" x1="843.24" y1="-380.9" x2="-1069.65" y2="750.07"/>
		<line class="st2" x1="868.65" y1="-380.9" x2="-1044.24" y2="750.07"/>
		<line class="st2" x1="894.05" y1="-380.9" x2="-1018.84" y2="750.07"/>
		<line class="st2" x1="919.46" y1="-380.9" x2="-993.43" y2="750.07"/>
		<line class="st2" x1="944.86" y1="-380.9" x2="-968.03" y2="750.07"/>
		<line class="st2" x1="970.27" y1="-380.9" x2="-942.62" y2="750.07"/>
		<line class="st2" x1="995.67" y1="-380.9" x2="-917.22" y2="750.07"/>
		<line class="st2" x1="1021.08" y1="-380.9" x2="-891.81" y2="750.07"/>
		<line class="st2" x1="1046.48" y1="-380.9" x2="-866.41" y2="750.07"/>
		<line class="st2" x1="1071.89" y1="-380.9" x2="-841" y2="750.07"/>
		<line class="st2" x1="1097.3" y1="-380.9" x2="-815.6" y2="750.07"/>
		<line class="st2" x1="1122.7" y1="-380.9" x2="-790.19" y2="750.07"/>
		<line class="st2" x1="1148.11" y1="-380.9" x2="-764.79" y2="750.07"/>
		<line class="st2" x1="1173.51" y1="-380.9" x2="-739.38" y2="750.07"/>
		<line class="st2" x1="1198.92" y1="-380.9" x2="-713.97" y2="750.07"/>
		<line class="st2" x1="1224.32" y1="-380.9" x2="-688.57" y2="750.07"/>
		<line class="st2" x1="1249.73" y1="-380.9" x2="-663.16" y2="750.07"/>
		<line class="st2" x1="1275.13" y1="-380.9" x2="-637.76" y2="750.07"/>
		<line class="st2" x1="1300.54" y1="-380.9" x2="-612.35" y2="750.07"/>
		<line class="st2" x1="1325.94" y1="-380.9" x2="-586.95" y2="750.07"/>
		<line class="st2" x1="1351.35" y1="-380.9" x2="-561.54" y2="750.07"/>
		<line class="st2" x1="1376.76" y1="-380.9" x2="-536.14" y2="750.07"/>
		<line class="st2" x1="1402.16" y1="-380.9" x2="-510.73" y2="750.07"/>
		<line class="st2" x1="1427.57" y1="-380.9" x2="-485.33" y2="750.07"/>
		<line class="st2" x1="1452.97" y1="-380.9" x2="-459.92" y2="750.07"/>
		<line class="st2" x1="1478.38" y1="-380.9" x2="-434.51" y2="750.07"/>
		<line class="st2" x1="1503.78" y1="-380.9" x2="-409.11" y2="750.07"/>
		<line class="st2" x1="1529.19" y1="-380.9" x2="-383.7" y2="750.07"/>
		<line class="st2" x1="1554.59" y1="-380.9" x2="-358.3" y2="750.07"/>
	</g>
</g>
<g id="Ebene_6">
</g>
<g id="Ebene_7">
</g>
<g>
	<path class="st3" d="M331.25,171.83c0-1.82-0.96-3.36-2.35-4.35l0.06-0.08l-17.48-12.48l13.81-16.49l-0.08-0.07
		c1.09-1.31,1.64-3.03,1.18-4.81c-0.46-1.77-1.77-3.01-3.36-3.63l0.04-0.1l-21.07-8.1l7.08-18.89l-0.04-0.02
		c0.22-0.6,0.38-1.22,0.38-1.9c0-2.55-1.79-4.6-4.15-5.19l0.02-0.1l-19.6-4.9l1.95-18.42l-0.04-0.01c0.06-0.63,0.06-1.28-0.11-1.94
		c-0.64-2.47-2.88-4-5.32-3.99l-0.01-0.1l-22.1,0.19l-5.35-21.42l-0.1,0.02c-0.6-2.37-2.64-4.16-5.2-4.16
		c-0.68,0-1.31,0.17-1.9,0.39l-0.01-0.03l-17.32,6.49l-9.66-17.76l-0.09,0.05c-1.17-2.14-3.6-3.37-6.07-2.73
		c-0.65,0.17-1.22,0.49-1.75,0.85l-0.02-0.03l-16.54,11.61l-13.12-18.37l-0.07,0.06c-1-1.38-2.53-2.34-4.36-2.34
		c-1.82,0-3.37,0.96-4.35,2.34l-0.08-0.06l-12.49,17.48l-16.47-13.8l-0.06,0.07c-1.31-1.09-3.04-1.63-4.81-1.17
		s-3.02,1.77-3.63,3.36l-0.09-0.04l-8.1,21.07l-18.92-7.09l-0.02,0.03c-0.6-0.22-1.22-0.39-1.9-0.39c-2.55,0-4.6,1.79-5.19,4.16
		l-0.1-0.02l-4.9,19.62L79,62.69l-0.01,0.04c-0.63-0.06-1.28-0.07-1.94,0.1c-2.47,0.64-4,2.89-3.98,5.33h-0.1l0.19,22.08L51.72,95.6
		l0.02,0.1c-2.36,0.6-4.16,2.64-4.16,5.19c0,0.68,0.17,1.31,0.39,1.9l-0.04,0.02l6.5,17.34l-17.75,9.66l0.04,0.09
		c-2.14,1.17-3.36,3.6-2.72,6.07c0.17,0.66,0.49,1.22,0.85,1.75l-0.03,0.03l11.59,16.51L28.03,167.4l0.06,0.08
		c-1.38,1-2.34,2.53-2.34,4.35c0,1.84,0.96,3.37,2.34,4.36l-0.06,0.08l17.51,12.51l-13.8,16.47l0.08,0.07
		c-1.09,1.31-1.63,3.04-1.18,4.8c0.46,1.78,1.77,3.02,3.36,3.63l-0.03,0.09l21.04,8.09l-7.09,18.91l0.16,0.07
		c-0.2,0.56-0.36,1.14-0.36,1.77c0,2.5,1.74,4.53,4.04,5.16l-0.05,0.22l19.64,4.91l-1.95,18.4l0.17,0.03
		c-0.05,0.59-0.06,1.19,0.1,1.8c0.63,2.42,2.82,3.95,5.21,3.98v0.22l22.06-0.19l5.36,21.42l0.21-0.05c0.64,2.31,2.65,4.03,5.16,4.03
		c0.63,0,1.21-0.15,1.78-0.35l0.07,0.15l17.36-6.51l9.67,17.77l0.19-0.1c1.19,2.07,3.58,3.24,6.01,2.61
		c0.61-0.16,1.14-0.45,1.63-0.78l0.1,0.13l16.51-11.59l13.11,18.35l0.16-0.11c0.99,1.32,2.5,2.23,4.27,2.23
		c1.78,0,3.29-0.9,4.28-2.23l0.16,0.11l12.51-17.51l16.5,13.81l0.12-0.15c1.29,1.03,2.98,1.53,4.7,1.08s2.96-1.7,3.58-3.23
		l0.18,0.07l8.09-21.05l18.88,7.08l0.07-0.15c0.56,0.2,1.14,0.35,1.77,0.35c2.51,0,4.53-1.72,5.17-4.03l0.21,0.05l4.91-19.63
		l18.43,1.95l0.03-0.17c0.59,0.05,1.2,0.05,1.8-0.1c2.43-0.63,3.95-2.8,3.99-5.2l0.21-0.01l-0.18-22.08l21.4-5.35l-0.04-0.22
		c2.31-0.64,4.03-2.66,4.03-5.16c0-0.64-0.16-1.21-0.36-1.77l0.16-0.07l-6.5-17.32l17.79-9.68l-0.1-0.2
		c2.07-1.19,3.24-3.58,2.61-6.01c-0.16-0.62-0.46-1.14-0.79-1.63l0.14-0.11l-11.6-16.52l18.34-13.1l-0.06-0.08
		C330.29,175.2,331.25,173.67,331.25,171.83z"/>
</g>
<g class="st4">
	<path class="st5" d="M99.08,177.12l-0.99,10.35c-0.09,0.45-0.45,0.81-0.9,0.81h-3.36c-0.39,0-0.78-0.33-0.81-0.69l-0.6-6.33
		c-0.03-0.45-0.09-1.14-0.12-1.71c-0.03-0.33-0.03-0.69-0.03-1.02h-0.72c0,0.33,0,0.69-0.03,1.02c-0.03,0.57-0.03,1.26-0.12,1.71
		l-0.6,6.33c-0.03,0.36-0.42,0.69-0.81,0.69h-3.36c-0.45,0-0.81-0.36-0.9-0.81l-0.99-10.35l-0.3-9.3c0-0.48,0.42-0.9,0.93-0.9h1.2
		c0.51,0,0.93,0.36,0.93,0.84l0.27,9.09l0.18,5.01c0.03,0.33,0.03,1.08,0.03,1.77v1.26h0.72c0.03-0.45,0.03-0.87,0.06-1.26
		c0.03-0.69,0.12-1.44,0.15-1.77l0.72-5.7c0.09-0.45,0.39-0.69,0.75-0.69h3.06c0.36,0,0.66,0.24,0.75,0.69l0.72,5.7
		c0.09,0.33,0.12,1.08,0.15,1.77c0.03,0.39,0.03,0.81,0.06,1.26h0.72v-1.26c0-0.69,0.03-1.44,0.03-1.77l0.18-5.01l0.27-9.09
		c0-0.48,0.42-0.84,0.93-0.84h1.2c0.51,0,0.93,0.42,0.93,0.9L99.08,177.12z"/>
	<path class="st5" d="M113.57,187.35c0,0.57-0.42,0.93-0.93,0.93h-9.78c-0.51,0-0.93-0.36-0.93-0.93v-1.2
		c0-0.51,0.42-0.93,0.93-0.93h3.36v-15.27h-3.06c-0.48,0-0.9-0.42-0.9-0.9v-1.26c0-0.48,0.42-0.87,0.9-0.87h9.18
		c0.48,0,0.9,0.39,0.9,0.87v1.26c0,0.48-0.42,0.9-0.9,0.9h-3.06v15.27h3.36c0.51,0,0.93,0.42,0.93,0.93V187.35z"/>
	<path class="st5" d="M129.35,187.02c0.33,0.63-0.15,1.26-0.84,1.26h-1.32c-0.33,0-0.72-0.27-0.84-0.54l-2.61-6.18h-2.34v5.79
		c0,0.57-0.42,0.93-0.93,0.93h-1.23c-0.48,0-0.9-0.36-0.9-0.93v-19.56c0-0.48,0.42-0.87,0.9-0.87h4.89c2.88,0,5.19,2.28,5.19,5.16
		v4.29c0,1.92-1.02,3.6-2.55,4.47L129.35,187.02z M126.26,172.08c0-1.17-0.93-2.13-2.13-2.13h-2.73v8.58h2.73
		c1.2,0,2.13-0.99,2.13-2.16V172.08z"/>
	<path class="st5" d="M161.39,187.35c0,0.57-0.42,0.93-0.93,0.93h-1.23c-0.48,0-0.9-0.36-0.9-0.93v-5.79h-6.12v5.79
		c0,0.57-0.42,0.93-0.9,0.93h-1.23c-0.51,0-0.93-0.36-0.93-0.93v-7.41l0.03-0.18l3.21-12.18c0.09-0.39,0.45-0.66,0.9-0.66h3.96
		c0.45,0,0.81,0.27,0.9,0.66l3.21,12.18l0.03,0.18V187.35z M155.63,169.95h-0.72l-2.22,8.58h5.16L155.63,169.95z"/>
	<path class="st5" d="M176.87,187.02c0.33,0.63-0.15,1.26-0.84,1.26h-1.32c-0.33,0-0.72-0.27-0.84-0.54l-2.61-6.18h-2.34v5.79
		c0,0.57-0.42,0.93-0.93,0.93h-1.23c-0.48,0-0.9-0.36-0.9-0.93v-19.56c0-0.48,0.42-0.87,0.9-0.87h4.89c2.88,0,5.19,2.28,5.19,5.16
		v4.29c0,1.92-1.02,3.6-2.55,4.47L176.87,187.02z M173.78,172.08c0-1.17-0.93-2.13-2.13-2.13h-2.73v8.58h2.73
		c1.2,0,2.13-0.99,2.13-2.16V172.08z"/>
	<path class="st5" d="M193.01,183.09c0,2.88-2.31,5.19-5.19,5.19h-5.22c-0.48,0-0.9-0.36-0.9-0.93v-19.56c0-0.48,0.42-0.87,0.9-0.87
		h4.89c2.88,0,5.19,2.28,5.19,5.16v1.83c0,1.41-0.51,2.58-1.35,3.51c1.05,0.96,1.68,2.31,1.68,3.84V183.09z M189.62,172.08
		c0-1.17-0.93-2.13-2.13-2.13h-2.73v6.12h2.73c1.2,0,2.13-0.99,2.13-2.16V172.08z M189.95,181.26c0-1.2-0.96-2.13-2.13-2.13h-3.06
		v6.09h3.06c1.17,0,2.13-0.93,2.13-2.13V181.26z"/>
	<path class="st5" d="M208.61,187.35c0,0.57-0.42,0.93-0.93,0.93h-9.18c-0.48,0-0.9-0.36-0.9-0.93v-19.56c0-0.48,0.42-0.87,0.9-0.87
		h9.18c0.51,0,0.93,0.39,0.93,0.87v1.26c0,0.48-0.42,0.9-0.93,0.9h-7.02v6.12h6.39c0.51,0,0.93,0.36,0.93,0.93v1.2
		c0,0.48-0.42,0.93-0.93,0.93h-6.39v6.09h7.02c0.51,0,0.93,0.42,0.93,0.93V187.35z"/>
	<path class="st5" d="M224.45,187.35c0,0.57-0.42,0.93-0.93,0.93h-9.78c-0.51,0-0.93-0.36-0.93-0.93v-1.2
		c0-0.51,0.42-0.93,0.93-0.93h3.36v-15.27h-3.06c-0.48,0-0.9-0.42-0.9-0.9v-1.26c0-0.48,0.42-0.87,0.9-0.87h9.18
		c0.48,0,0.9,0.39,0.9,0.87v1.26c0,0.48-0.42,0.9-0.9,0.9h-3.06v15.27h3.36c0.51,0,0.93,0.42,0.93,0.93V187.35z"/>
	<path class="st5" d="M240.59,169.05c0,0.48-0.42,0.9-0.93,0.9H236v17.4c0,0.57-0.42,0.93-0.93,0.93h-1.2
		c-0.51,0-0.93-0.36-0.93-0.93v-17.4h-3.66c-0.51,0-0.93-0.42-0.93-0.9v-1.26c0-0.48,0.42-0.87,0.93-0.87h10.38
		c0.51,0,0.93,0.39,0.93,0.87V169.05z"/>
	<path class="st5" d="M256.13,187.35c0,0.57-0.42,0.93-0.93,0.93h-9.18c-0.48,0-0.9-0.36-0.9-0.93v-19.56c0-0.48,0.42-0.87,0.9-0.87
		h9.18c0.51,0,0.93,0.39,0.93,0.87v1.26c0,0.48-0.42,0.9-0.93,0.9h-7.02v6.12h6.39c0.51,0,0.93,0.36,0.93,0.93v1.2
		c0,0.48-0.42,0.93-0.93,0.93h-6.39v6.09h7.02c0.51,0,0.93,0.42,0.93,0.93V187.35z"/>
	<path class="st5" d="M272.9,187.35c0,0.57-0.42,0.93-0.93,0.93h-3.45c-0.36,0-0.78-0.27-0.87-0.6l-4.05-13.77
		c-0.12-0.39-0.27-1.26-0.42-2.07c-0.09-0.48-0.18-0.99-0.27-1.5h-0.72c0.06,0.51,0.12,1.02,0.15,1.5c0.09,0.81,0.12,1.68,0.12,2.07
		v13.44c0,0.57-0.42,0.93-0.93,0.93h-1.2c-0.51,0-0.93-0.36-0.93-0.93v-19.56c0-0.48,0.42-0.87,0.93-0.87h3.45
		c0.36,0,0.78,0.24,0.87,0.57l4.05,13.77c0.12,0.39,0.3,1.29,0.45,2.1c0.09,0.48,0.15,0.99,0.24,1.5h0.72
		c-0.03-0.51-0.09-1.02-0.12-1.5c-0.09-0.81-0.15-1.71-0.15-2.1v-13.44c0-0.51,0.42-0.9,0.93-0.9h1.2c0.51,0,0.93,0.39,0.93,0.9
		V187.35z"/>
</g>
<g class="st4">
	<path class="st5" d="M114.05,223.35c0,0.57-0.42,0.93-0.93,0.93h-3.45c-0.36,0-0.78-0.27-0.87-0.6l-4.05-13.77
		c-0.12-0.39-0.27-1.26-0.42-2.07c-0.09-0.48-0.18-0.99-0.27-1.5h-0.72c0.06,0.51,0.12,1.02,0.15,1.5c0.09,0.81,0.12,1.68,0.12,2.07
		v13.44c0,0.57-0.42,0.93-0.93,0.93h-1.2c-0.51,0-0.93-0.36-0.93-0.93v-19.56c0-0.48,0.42-0.87,0.93-0.87h3.45
		c0.36,0,0.78,0.24,0.87,0.57l4.05,13.77c0.12,0.39,0.3,1.29,0.45,2.1c0.09,0.48,0.15,0.99,0.24,1.5h0.72
		c-0.03-0.51-0.09-1.02-0.12-1.5c-0.09-0.81-0.15-1.71-0.15-2.1v-13.44c0-0.51,0.42-0.9,0.93-0.9h1.2c0.51,0,0.93,0.39,0.93,0.9
		V223.35z"/>
	<path class="st5" d="M129.26,223.35c0,0.57-0.42,0.93-0.93,0.93h-1.23c-0.48,0-0.9-0.36-0.9-0.93v-5.79h-6.12v5.79
		c0,0.57-0.42,0.93-0.9,0.93h-1.23c-0.51,0-0.93-0.36-0.93-0.93v-7.41l0.03-0.18l3.21-12.18c0.09-0.39,0.45-0.66,0.9-0.66h3.96
		c0.45,0,0.81,0.27,0.9,0.66l3.21,12.18l0.03,0.18V223.35z M123.5,205.95h-0.72l-2.22,8.58h5.16L123.5,205.95z"/>
	<path class="st5" d="M144.8,219.39c0,2.88-2.34,5.22-5.22,5.22h-0.93c-2.85,0-5.16-2.34-5.16-5.22v-11.61
		c0-2.88,2.31-5.19,5.16-5.19h0.93c2.88,0,5.22,2.31,5.22,5.19v0.6c0,0.51-0.42,0.93-0.93,0.93h-1.23c-0.48,0-0.93-0.42-0.93-0.93
		v-0.6c0-1.17-0.93-2.13-2.13-2.13h-0.93c-1.17,0-2.13,0.96-2.13,2.13v11.61c0,1.17,0.96,2.16,2.13,2.16h0.93
		c1.2,0,2.13-0.99,2.13-2.16v-0.93c0-0.48,0.45-0.9,0.93-0.9h1.23c0.51,0,0.93,0.42,0.93,0.9V219.39z"/>
	<path class="st5" d="M160.31,223.35c0,0.57-0.42,0.93-0.9,0.93h-1.23c-0.51,0-0.9-0.36-0.9-0.93v-8.22h-4.92v8.22
		c0,0.57-0.39,0.93-0.9,0.93h-1.23c-0.48,0-0.9-0.36-0.9-0.93v-19.56c0-0.48,0.42-0.87,0.9-0.87h1.23c0.51,0,0.9,0.39,0.9,0.87v8.28
		h4.92v-8.28c0-0.48,0.39-0.87,0.9-0.87h1.23c0.48,0,0.9,0.39,0.9,0.87V223.35z"/>
	<path class="st5" d="M176.15,223.35c0,0.57-0.42,0.93-0.9,0.93h-1.23c-0.51,0-0.9-0.36-0.9-0.93v-8.22h-4.92v8.22
		c0,0.57-0.39,0.93-0.9,0.93h-1.23c-0.48,0-0.9-0.36-0.9-0.93v-19.56c0-0.48,0.42-0.87,0.9-0.87h1.23c0.51,0,0.9,0.39,0.9,0.87v8.28
		h4.92v-8.28c0-0.48,0.39-0.87,0.9-0.87h1.23c0.48,0,0.9,0.39,0.9,0.87V223.35z"/>
	<path class="st5" d="M192.62,223.35c0,0.57-0.42,0.93-0.93,0.93h-1.23c-0.48,0-0.9-0.36-0.9-0.93v-5.79h-6.12v5.79
		c0,0.57-0.42,0.93-0.9,0.93h-1.23c-0.51,0-0.93-0.36-0.93-0.93v-7.41l0.03-0.18l3.21-12.18c0.09-0.39,0.45-0.66,0.9-0.66h3.96
		c0.45,0,0.81,0.27,0.9,0.66l3.21,12.18l0.03,0.18V223.35z M186.86,205.95h-0.72l-2.22,8.58h5.16L186.86,205.95z"/>
	<path class="st5" d="M208.46,223.35c0,0.57-0.42,0.93-0.93,0.93h-8.55c-0.51,0-0.9-0.36-0.9-0.93v-19.56c0-0.48,0.39-0.87,0.9-0.87
		h1.23c0.48,0,0.93,0.39,0.93,0.87v17.43h6.39c0.51,0,0.93,0.42,0.93,0.93V223.35z"/>
	<path class="st5" d="M224.3,205.05c0,0.48-0.42,0.9-0.93,0.9h-3.66v17.4c0,0.57-0.42,0.93-0.93,0.93h-1.2
		c-0.51,0-0.93-0.36-0.93-0.93v-17.4h-3.66c-0.51,0-0.93-0.42-0.93-0.9v-1.26c0-0.48,0.42-0.87,0.93-0.87h10.38
		c0.51,0,0.93,0.39,0.93,0.87V205.05z"/>
	<path class="st5" d="M239.84,223.35c0,0.57-0.42,0.93-0.93,0.93h-9.78c-0.51,0-0.93-0.36-0.93-0.93v-1.2
		c0-0.51,0.42-0.93,0.93-0.93h3.36v-15.27h-3.06c-0.48,0-0.9-0.42-0.9-0.9v-1.26c0-0.48,0.42-0.87,0.9-0.87h9.18
		c0.48,0,0.9,0.39,0.9,0.87v1.26c0,0.48-0.42,0.9-0.9,0.9h-3.06v15.27h3.36c0.51,0,0.93,0.42,0.93,0.93V223.35z"/>
	<path class="st5" d="M255.5,219.39c0,2.88-2.31,5.22-5.19,5.22h-0.9c-2.88,0-5.19-2.34-5.19-5.22v-11.58
		c0-2.88,2.31-5.22,5.19-5.22h0.9c2.88,0,5.19,2.34,5.19,5.22v0.6c0,0.48-0.36,0.93-0.93,0.93h-1.2c-0.48,0-0.93-0.45-0.93-0.93
		v-0.6c0-1.17-0.93-2.16-2.13-2.16h-0.9c-1.2,0-2.13,0.99-2.13,2.16v11.58c0,1.17,0.93,2.16,2.13,2.16h0.9
		c1.2,0,2.13-0.99,2.13-2.16v-4.26h-2.43c-0.51,0-0.93-0.45-0.93-0.93V213c0-0.57,0.42-0.93,0.93-0.93h4.56
		c0.57,0,0.93,0.36,0.93,0.93V219.39z"/>
	<path class="st5" d="M268.16,223.35c0,0.57-0.45,0.93-0.93,0.93h-3.06c-0.48,0-0.93-0.36-0.93-0.93v-3.03
		c0-0.51,0.45-0.93,0.93-0.93h3.06c0.48,0,0.93,0.42,0.93,0.93V223.35z M267.23,216.93c0,0.51-0.42,0.93-0.93,0.93h-1.2
		c-0.51,0-0.93-0.42-0.93-0.93v-13.14c0-0.48,0.42-0.87,0.93-0.87h1.2c0.51,0,0.93,0.39,0.93,0.87V216.93z"/>
</g>
<path class="st5" d="M178.28,84.9c-2.58,0-5.14,0.32-7.62,0.97c-0.4,0.1-0.64,0.51-0.53,0.91c0.1,0.4,0.51,0.64,0.91,0.53
	c2.35-0.61,4.79-0.92,7.25-0.92c5.1,0,9.9,1.34,14.06,3.67c-1.76,1.08-4.79,2.99-5.44,2.99c-0.96,0-4.81,0-5.78,0
	c-0.96,0-5.49,4.14-4.81,4.81c0.96,0.96,3.85-0.96,4.81-0.96c0.96,0,0.96,2.89,0,3.85s-6.74,0.96-7.7,0.96
	c-0.96,0-2.89,3.85-2.89,4.81s0.96,1.93,1.93,1.93c0.96,0,5.78-3.85,6.74-3.85s2.89,1.92,3.85,1.92s3.85-2.89,4.81-1.92
	c0.96,0.96-2.89,2.89-2.89,3.85s0.96,0.96,1.93,0.96c0.96,0,0.96,1.93,0,1.93s-5.78,0-6.74,0s-1.93-1.93-2.89-1.93
	s-10.59,3.85-10.59,4.81s0,4.81,0,5.78c0,0.96,3.85,3.85,4.81,3.85c0.96,0,2.89-0.96,3.85-0.96s3.85,4.81,3.85,5.78
	c0,0.96-0.96,1.92-0.96,2.89c0,0.96,0.96,2.89,1.93,3.85c0.96,0.96,2.89,1.93,3.85,0.96c0.96-0.96,5.78-5.78,5.78-6.74
	s0-1.93,0-2.89s3.37-2.7,2.89-3.85c-0.29-0.67-1.93,0-2.89-0.96s-0.96-8.66-0.96-8.66s1.93,5.78,2.89,6.74s3.85-1.93,3.85-2.89
	s-1.93-4.81-1.93-4.81s0.96,0.96,1.93,1.93c0.96,0.96,1.93,0,2.89,0s2.89,6.74,3.85,6.74s0.96-2.89,1.93-3.85
	c0.52-0.52,1.77-0.75,2.89-0.87c-0.53,15.45-13.26,27.85-28.83,27.85c-7.01,0-13.45-2.52-18.46-6.7c0.53-1.77,1.09-3.9,1.09-4.88
	c0-1.93-3.85-1.93-4.81-2.89c-0.96-0.96-0.96-3.85-1.93-4.81c-0.55-0.55-2.3-1.4-3.73-2.01c-0.66-2.41-1.01-4.94-1.01-7.56
	c0-0.07-0.02-0.12-0.04-0.18c2.26-0.71,12.82-4.43,16.29-12.93c3.82-9.34-2.51-20.55-2.79-21.02c-0.02-0.04-0.05-0.06-0.08-0.09
	c-0.02-0.03-0.04-0.05-0.06-0.08c-0.06-0.06-0.13-0.11-0.22-0.14l-0.01-0.01c-0.01,0-0.01,0-0.02,0c-0.08-0.03-0.16-0.05-0.25-0.05
	c-0.04,0-0.08,0.01-0.11,0.01c-0.04,0-0.07,0-0.11,0.01c-0.52,0.15-12.89,3.72-16.71,13.05c-0.16,0.4-0.3,0.81-0.43,1.21
	c-0.08,0.09-0.13,0.18-0.17,0.29c-3.04-1.99-6.17-2.79-6.38-2.84c-0.33-0.08-0.67,0.07-0.83,0.37c-0.17,0.32-4.13,7.88-1.39,14.01
	c2.74,6.13,11,8.24,11.35,8.32c0.06,0.01,0.12,0.02,0.18,0.02c0.1,0,0.2-0.03,0.29-0.06c0,0.03-0.02,0.06-0.02,0.1
	c0,16.73,13.61,30.34,30.34,30.34s30.34-13.61,30.34-30.34C208.62,98.51,195.01,84.9,178.28,84.9z M147.27,113.58
	c-1.86-0.58-7.73-2.73-9.78-7.32c-2.05-4.59,0.27-10.39,1.09-12.17c1.1,0.34,3.58,1.23,5.85,2.84c-1.24,6.63,1.52,13.5,2.93,16.44
	C147.33,113.44,147.3,113.52,147.27,113.58z M151.15,88.38l3.56,9.59l-0.27,0.65l-2.06,5.03l-0.5-0.67l-5.56-7.5
	c0.11-0.37,0.24-0.73,0.39-1.09C147.69,92,149.31,90.01,151.15,88.38z M160.94,82.71l-5.4,13.22l-3.17-8.56
	C155.52,84.92,159,83.42,160.94,82.71z M164.3,101.57c-0.14,0.35-0.31,0.67-0.48,1l-5.44,0.88l-0.59,0.1l-4.03,0.65l1.73-4.24
	l0.59-1.44l5.4-2.54l3.86-1.82C165.51,96.62,165.27,99.18,164.3,101.57z M150.07,113.24l0.22-0.53l2.82-6.89l0.94-0.15l8.81-1.43
	C159.34,109.36,152.96,112.17,150.07,113.24z M145.77,98c0.03-0.21,0.06-0.43,0.1-0.64l3.56,4.8l1.1,1.48l0.67,0.9l0.53,0.72
	l-1.29,3.16l-1,2.44l-0.74,1.82c-0.04-0.09-0.08-0.18-0.13-0.27c-0.14-0.3-0.29-0.63-0.44-1C146.82,108.35,145.09,103.09,145.77,98z
	 M160.57,94.77l-3.66,1.72l0.64-1.56l4.76-11.66c0.88,1.87,2.32,5.38,2.86,9.33L160.57,94.77z"/>
<g id="Icons_Kontur">
	<line class="st6" x1="199.1" y1="260.93" x2="156.1" y2="260.93"/>
	<polyline class="st6" points="185.18,274.93 199.1,260.93 185.18,246.93 	"/>
</g>
<g id="Icons_Konturlinie_RZ" class="st0">
</g>
<g id="_x2F__x2F__x2F__Konstruktion__x2F__x2F__x2F_">
</g>
</svg>
